HIERARCHY
ROOT Hips
{
	OFFSET 54.697201 -6.264624 84.481300
	CHANNELS 6 Xposition Yposition Zposition Xrotation Yrotation Zrotation
	JOINT spine
	{
		OFFSET 0.000000 -0.342408 5.954384
		CHANNELS 3 Xrotation Yrotation Zrotation
		JOINT spine1
		{
			OFFSET 0.000000 -0.000001 8.856018
			CHANNELS 3 Xrotation Yrotation Zrotation
			JOINT spine2
			{
				OFFSET 0.000000 -0.000001 8.485672
				CHANNELS 3 Xrotation Yrotation Zrotation
				JOINT Neck
				{
					OFFSET 0.000000 -1.038703 21.786301
					CHANNELS 3 Xrotation Yrotation Zrotation
					JOINT Head
					{
						OFFSET 0.000000 -0.000001 6.582199
						CHANNELS 3 Xrotation Yrotation Zrotation
						End Site
						{
							OFFSET 0.000000 5.254358 15.932602
						}
					}
				}
				JOINT RightShoulder
				{
					OFFSET -3.573071 0.497524 9.163864
					CHANNELS 3 Xrotation Yrotation Zrotation
					JOINT RightArm
					{
						OFFSET 0.000000 -0.000002 12.019196
						CHANNELS 3 Xrotation Yrotation Zrotation
						JOINT RightArmRoll
						{
							OFFSET 0.000000 -0.000001 6.067535
							CHANNELS 3 Xrotation Yrotation Zrotation
							JOINT RightForeArm
							{
								OFFSET 0.000000 -0.000003 17.672592
								CHANNELS 3 Xrotation Yrotation Zrotation
								JOINT RightForeArmRoll
								{
									OFFSET 0.000000 -0.000001 6.808716
									CHANNELS 3 Xrotation Yrotation Zrotation
									JOINT RightHand
									{
										OFFSET 0.000000 -0.000002 13.663605
										CHANNELS 3 Xrotation Yrotation Zrotation
										End Site
										{
											OFFSET 0.000000 0.000000 0.100006
										}
									}
								}
							}
						}
					}
				}
				JOINT LeftShoulder
				{
					OFFSET 3.573071 0.497524 9.163864
					CHANNELS 3 Xrotation Yrotation Zrotation
					JOINT LeftArm
					{
						OFFSET 0.000000 -0.000002 12.019196
						CHANNELS 3 Xrotation Yrotation Zrotation
						JOINT LeftArmRoll
						{
							OFFSET 0.000000 -0.000001 6.067551
							CHANNELS 3 Xrotation Yrotation Zrotation
							JOINT LeftForeArm
							{
								OFFSET 0.000000 -0.000003 17.672607
								CHANNELS 3 Xrotation Yrotation Zrotation
								JOINT LeftForeArmRoll
								{
									OFFSET 0.000000 -0.000001 6.808716
									CHANNELS 3 Xrotation Yrotation Zrotation
									JOINT LeftHand
									{
										OFFSET 0.000000 -0.000002 13.663605
										CHANNELS 3 Xrotation Yrotation Zrotation
										End Site
										{
											OFFSET 0.000000 0.000000 0.100006
										}
									}
								}
							}
						}
					}
				}
			}
		}
	}
	JOINT RightUpLeg
	{
		OFFSET -5.277740 0.811858 -0.967796
		CHANNELS 3 Xrotation Yrotation Zrotation
		JOINT RightUpLegRoll
		{
			OFFSET 0.000000 -0.000002 16.021400
			CHANNELS 3 Xrotation Yrotation Zrotation
			JOINT RightLeg
			{
				OFFSET 0.000000 0.000003 -19.840096
				CHANNELS 3 Xrotation Yrotation Zrotation
				JOINT RightLegRoll
				{
					OFFSET 0.000000 -0.000003 19.904999
					CHANNELS 3 Xrotation Yrotation Zrotation
					JOINT RightFoot
					{
						OFFSET 0.000000 -0.000003 16.567497
						CHANNELS 3 Xrotation Yrotation Zrotation
						JOINT RightToeBase
						{
							OFFSET 0.000000 -0.000002 13.849602
							CHANNELS 3 Xrotation Yrotation Zrotation
							End Site
							{
								OFFSET 0.005871 0.773116 6.707275
							}
						}
					}
				}
			}
		}
	}
	JOINT LeftUpLeg
	{
		OFFSET 5.277740 0.811858 -0.967796
		CHANNELS 3 Xrotation Yrotation Zrotation
		JOINT LeftUpLegRoll
		{
			OFFSET 0.000000 -0.000002 16.021500
			CHANNELS 3 Xrotation Yrotation Zrotation
			JOINT LeftLeg
			{
				OFFSET 0.000000 -0.000003 19.839996
				CHANNELS 3 Xrotation Yrotation Zrotation
				JOINT LeftLegRoll
				{
					OFFSET 0.000000 -0.000003 20.089005
					CHANNELS 3 Xrotation Yrotation Zrotation
					JOINT LeftFoot
					{
						OFFSET 0.000000 -0.000002 16.383499
						CHANNELS 3 Xrotation Yrotation Zrotation
						JOINT LeftToeBase
						{
							OFFSET 0.000000 -0.000002 13.849594
							CHANNELS 3 Xrotation Yrotation Zrotation
							End Site
							{
								OFFSET -0.026310 0.773115 6.707275
							}
						}
					}
				}
			}
		}
	}
}
MOTION
Frames: 9
Frame Time: 0.041667
54.525101 -2.999563 84.521004 -10.478893 -1.338870 1.314619 -0.619739 -0.221011 0.094211 2.763751 -0.441597 0.194112 4.408828 -0.439167 0.198148 4.539115 16.298059 -1.271215 8.705720 -16.759293 -1.760671 3.051145 -60.431622 3.432966 -48.313927 -138.425340 -86.971094 -0.000002 -0.000000 -0.000001 72.750312 2.463354 -4.444263 -0.000000 0.000001 -2.999991 -5.000187 -7.999926 0.000020 -20.855484 71.729875 24.449294 -47.939223 140.951895 85.485596 0.000001 -0.000003 0.000001 69.154689 -2.588412 4.377852 -0.000007 -0.000002 3.000001 -5.000162 7.999935 -0.000006 2.735210 -176.904522 5.357763 179.999991 -0.000005 -1.196999 168.062351 -3.337405 -0.741162 0.000001 -0.000004 0.172880 70.295392 6.881793 2.091358 25.456953 -7.355618 0.000011 3.712757 179.645737 -0.414062 -0.000004 -0.000004 -1.196980 -9.677797 2.555625 0.490220 -0.000002 0.000003 -0.134095 69.694656 -6.878221 -2.124858 25.456955 7.355613 -0.000001 
54.530201 -3.002583 84.518707 -10.508944 -1.326331 1.308128 -0.609248 -0.224809 0.094351 2.784736 -0.449149 0.194350 4.429825 -0.446713 0.198307 4.535360 16.318184 -1.268620 8.585036 -16.821421 -1.770311 2.961125 -60.403925 3.332251 -48.352395 -138.354689 -86.920946 0.000001 -0.000000 0.000001 72.727595 2.464193 -4.443398 0.000001 0.000003 -2.999991 -5.000180 -7.999932 0.000016 -21.016490 71.699679 24.627719 -47.963538 140.883348 85.430387 0.000003 -0.000003 -0.000001 69.120258 -2.589568 4.377493 -0.000006 -0.000002 3.000000 -5.000162 7.999929 -0.000006 2.765849 -176.917595 5.355802 179.999991 -0.000005 -1.197997 168.056764 -3.336347 -0.741278 0.000000 -0.000004 0.172886 70.297960 6.881877 2.091415 25.456959 -7.355616 0.000010 3.758415 179.627787 -0.433842 -0.000004 -0.000004 -1.197140 -9.661951 2.564795 0.490142 -0.000002 0.000003 -0.133594 69.685435 -6.878192 -2.124724 25.456955 7.355614 -0.000000 
54.532299 -3.029593 84.531700 -10.537504 -1.313880 1.301600 -0.599521 -0.228388 0.094492 2.804198 -0.456282 0.194574 4.449279 -0.453841 0.198455 4.540438 16.334428 -1.267201 8.458783 -16.881265 -1.780488 2.871978 -60.379466 3.232097 -48.392655 -138.284966 -86.870403 0.000001 -0.000002 -0.000002 72.701141 2.465133 -4.442489 -0.000001 -0.000002 -2.999988 -5.000183 -7.999927 0.000016 -21.173790 71.669312 24.802112 -47.996030 140.811153 85.376552 -0.000000 -0.000003 -0.000000 69.086824 -2.590695 4.377136 -0.000005 -0.000001 3.000000 -5.000162 7.999932 -0.000005 2.795147 -176.931652 5.353464 179.999991 -0.000005 -1.198994 168.051982 -3.334337 -0.740147 0.000001 -0.000004 0.172891 70.300118 6.881947 2.091494 25.456957 -7.355615 0.000009 3.801434 179.610848 -0.453206 -0.000004 -0.000005 -1.197280 -9.647525 2.573729 0.490100 -0.000002 0.000003 -0.133131 69.676870 -6.878219 -2.124361 25.456957 7.355612 0.000000 
54.533100 -3.013154 84.511597 -10.563857 -1.301725 1.294971 -0.590770 -0.231686 0.094631 2.821713 -0.462886 0.194788 4.466795 -0.460441 0.198599 4.554219 16.346502 -1.266791 8.329142 -16.938130 -1.790733 2.785200 -60.358395 3.134220 -48.434716 -138.215134 -86.819545 -0.000001 0.000001 -0.000000 72.671280 2.466204 -4.441583 0.000001 0.000002 -2.999988 -5.000184 -7.999931 0.000017 -21.325502 71.639293 24.970362 -48.036095 140.736034 85.323242 0.000003 -0.000003 -0.000000 69.054189 -2.591782 4.376761 -0.000005 -0.000003 3.000001 -5.000160 7.999930 -0.000009 2.822428 -176.944697 5.350906 179.999991 -0.000005 -1.200004 168.048089 -3.333314 -0.740168 0.000001 -0.000004 0.172896 70.301730 6.882047 2.091610 25.456955 -7.355617 0.000010 3.840861 179.593909 -0.471871 -0.000004 -0.000004 -1.197410 -9.634897 2.582265 0.490100 -0.000002 0.000004 -0.132715 69.669145 -6.878204 -2.124238 25.456952 7.355613 0.000000 
54.528400 -3.030252 84.523804 -10.587513 -1.290094 1.288138 -0.583194 -0.234645 0.094769 2.836856 -0.468847 0.194998 4.481937 -0.466399 0.198745 4.576581 16.354198 -1.267228 8.198338 -16.991115 -1.800606 2.702287 -60.340794 3.040329 -48.478425 -138.144087 -86.768203 -0.000002 0.000003 0.000000 72.638700 2.467340 -4.440683 -0.000002 -0.000001 -2.999990 -5.000184 -7.999928 0.000016 -21.469602 71.610114 25.130240 -48.083780 140.657992 85.270513 0.000003 -0.000003 -0.000001 69.021862 -2.592884 4.376339 -0.000005 -0.000002 2.999999 -5.000165 7.999928 -0.000005 2.847013 -176.957757 5.348101 179.999991 -0.000004 -1.200005 168.044988 -3.332299 -0.740142 0.000001 -0.000004 0.172902 70.302816 6.882098 2.091752 25.456952 -7.355616 0.000011 3.875762 179.576970 -0.489485 -0.000004 -0.000004 -1.197540 -9.624447 2.590253 0.490149 -0.000002 0.000003 -0.132356 69.662486 -6.878233 -2.123956 25.456950 7.355613 0.000000 
54.537498 -3.017877 84.518105 -10.607773 -1.279196 1.281027 -0.577010 -0.237207 0.094906 2.849227 -0.474053 0.195203 4.494313 -0.471604 0.198896 4.607382 16.357121 -1.268325 8.068574 -17.039638 -1.809606 2.624769 -60.327038 2.952170 -48.522244 -138.071974 -86.714415 -0.000001 0.000000 -0.000002 72.603818 2.468545 -4.439825 -0.000001 -0.000000 -2.999990 -5.000184 -7.999925 0.000016 -21.604057 71.582117 25.279483 -48.138316 140.577628 85.217299 0.000001 -0.000003 0.000001 68.989733 -2.593972 4.375874 -0.000005 -0.000003 2.999999 -5.000163 7.999929 -0.000008 2.868220 -176.969792 5.345168 179.999991 -0.000005 -1.201002 168.042912 -3.330309 -0.739847 0.000001 -0.000004 0.172908 70.303178 6.882204 2.091749 25.456957 -7.355618 0.000011 3.905172 179.562026 -0.505565 -0.000005 -0.000005 -1.197660 -9.616564 2.597550 0.490258 -0.000002 0.000003 -0.132064 69.656974 -6.878231 -2.123897 25.456948 7.355613 0.000000 
54.537197 -3.023651 84.519997 -10.624039 -1.269251 1.273546 -0.572425 -0.239314 0.095040 2.858410 -0.478393 0.195409 4.503496 -0.475942 0.199058 4.646497 16.355066 -1.269911 7.942111 -17.083017 -1.817228 2.554142 -60.317305 2.871450 -48.566890 -137.997142 -86.659152 -0.000001 0.000001 -0.000000 72.567113 2.469796 -4.439025 0.000001 -0.000001 -2.999988 -5.000184 -7.999927 0.000016 -21.727110 71.555985 25.416119 -48.200590 140.494382 85.164987 0.000001 -0.000003 0.000001 68.957412 -2.595079 4.375343 -0.000005 -0.000002 2.999999 -5.000162 7.999928 -0.000005 2.885357 -176.979832 5.342190 179.999991 -0.000005 -1.201999 168.041819 -3.329320 -0.739705 0.000001 -0.000004 0.172914 70.302871 6.882232 2.091873 25.456959 -7.355617 0.000011 3.928148 179.549062 -0.519754 -0.000004 -0.000004 -1.197780 -9.611620 2.603978 0.490428 -0.000002 0.000003 -0.131850 69.653053 -6.878221 -2.123836 25.456955 7.355613 -0.000000 
54.542904 -3.019504 84.520897 -10.635705 -1.260475 1.265606 -0.569642 -0.240906 0.095171 2.863982 -0.481755 0.195618 4.509069 -0.479303 0.199237 4.693803 16.347641 -1.271794 7.821113 -17.120467 -1.822963 2.491881 -60.311779 2.799866 -48.611327 -137.918950 -86.601355 -0.000002 0.000001 0.000001 72.529185 2.471059 -4.438312 -0.000000 0.000001 -2.999990 -5.000182 -7.999930 0.000014 -21.836641 71.532018 25.537792 -48.270429 140.408185 85.113282 0.000001 -0.000005 0.000001 68.924689 -2.596205 4.374727 -0.000005 -0.000004 2.999999 -5.000164 7.999929 -0.000005 2.897768 -176.989845 5.339109 179.999991 -0.000005 -1.202996 168.041833 -3.328344 -0.739497 0.000001 -0.000004 0.172920 70.301723 6.882312 2.091958 25.456950 -7.355615 0.000011 3.943724 179.537096 -0.531769 -0.000005 -0.000004 -1.197900 -9.609987 2.609404 0.490673 -0.000002 0.000003 -0.131724 69.650622 -6.878235 -2.123890 25.456957 7.355613 0.000000 
54.534302 -3.026496 84.518700 -10.642771 -1.252239 1.257082 -0.568753 -0.241949 0.095300 2.865752 -0.484098 0.195826 4.510840 -0.481646 0.199423 4.755281 16.332610 -1.274941 7.696191 -17.152254 -1.827835 2.434119 -60.313453 2.732504 -48.654863 -137.841222 -86.541010 0.000001 0.000001 0.000001 72.485041 2.472510 -4.437587 -0.000001 0.000004 -2.999992 -5.000183 -7.999931 0.000020 -21.937441 71.508584 25.649826 -48.347521 140.316879 85.060840 0.000002 -0.000003 -0.000000 68.893366 -2.597290 4.374070 -0.000007 -0.000003 3.000001 -5.000165 7.999928 -0.000006 2.905918 -176.997864 5.335543 179.999991 -0.000005 -1.202996 168.043636 -3.327391 -0.740183 0.000001 -0.000004 0.172921 70.299312 6.882403 2.092022 25.456957 -7.355615 0.000011 3.951582 179.526140 -0.542184 -0.000005 -0.000004 -1.198020 -9.612486 2.613939 0.491035 -0.000002 0.000003 -0.131706 69.650192 -6.878215 -2.124015 25.456955 7.355613 -0.000001 
